<svg version="1.1" xmlns="http://www.w3.org/2000/svg"
	 viewBox="0 0 999.7 506">
<g>
	<path d="M756.5,161.7c-10.7,11.6-15.4,24-18.7,37.2c-2.3,9.2-4.3,18.5-6.8,27.7c-0.4,1.5-2.9,3.5-4.4,3.5
		c-16.1,0.3-19.2,14-25,24.5c-0.7,1.3,1.3,4.7,2.8,6.5c7.3,8.6,15.6,16.5,22.1,25.6c9.7,13.5,17.8,28.2,27.5,41.8
		c5.6,7.8,13.2,14.2,19.4,21.5c5.9,7,6.3,12.7,1.2,16.7c-1.4,1.1-5.7,1.3-6.6,0.2c-10.9-13.1-21.1-26.6-30.7-40.8
		c-9.2-13.8-14.9-30.4-29.3-40.8c-4.2-3-6.4-8.6-9.4-13.2c-8.2-12.5-16.3-25.1-24.7-37.5c-2.4-3.6-5.7-6.6-8.8-10.1
		c-8.1,9.5-16.9,19.1-24.9,29.3c-9.7,12.3-18.9,25.1-28,37.9c-1.3,1.8-1.9,4.9-1.5,7.1c2.7,16.2,6.6,32.2,8.5,48.5
		c2.3,19.5,8.7,38.5,4.9,58.8c-1.7,9.1,1,19.1,2.5,28.7c1.1,7.5,0.5,11.4-5.8,16.4c-9.1-21.6-12.3-43.9-15.3-66.4
		c-3-22.5-6-44.9-9.1-68.2c-7.1,1-8.8,15.1-20.9,7.8c1.8-3.5,2.9-8.7,6.1-11.7c12.7-11.6,17.2-24.2,11.6-41.5
		c-3.9-12.3-3.5-25.8-5.6-38.7c-1.9-12-5-23.9-6.8-36c-1.1-7.4-0.2-15.2-1.4-22.6c-3.4-22-7.9-43.9-10.9-66
		c-1.4-10.4-0.3-21.2-0.4-31.9c0-2.7-0.5-5.4-0.4-8.1c0.2-2.8,0.9-5.6,1.3-8.4c4.1,1.1,10,0.9,11.9,3.6c9.9,13.8,18.5,28.4,28,42.4
		c6.1,9.1,13.8,17.1,19.2,26.6c8.9,15.6,16.3,32.1,24.8,48c3.4,6.4,8.3,11.9,12.9,18.5c5.1-6.9,9.2-12.7,13.7-18.2
		c2.6-3.3,6.4-8.4,10.3-4.3c2.7,2.8,3.9,10.1,2.2,13.5c-3.4,6.8-9.2,12.3-14.3,18.2c-3.7,4.4-5,8.8-1.6,13.8
		c5.4,8.1,10.8,16.2,17.5,26.4c4.6-9.3,7.9-16.1,11.4-22.8c4.7-9,9.8-17.8,14.5-26.7c2.8-5.3,5.3-10.9,7.9-16.3
		c6.9-14.4,13.6-28.8,20.7-43.1c5.9-11.8,12.9-23.1,18.2-35.2c6.8-15.4,12.4-31.3,18.6-46.9c1.9-4.9,5.3-8.3,10.9-7.5
		c5.5,0.8,10.3,7.9,10,12.6c-0.4,6-1.3,12.4,0.3,17.9c4.7,16,10.2,31.7,16,47.3c2.5,6.9,7.1,13,9.5,19.9c1.6,4.3,1,9.4,1.4,14.4
		c-20.4-6.8-35.9-21.5-59.7-21.1c1.8,8.1,2.5,15.5,5.2,22.1c4.9,12,10.7,23.6,16.6,35.1c9,17.5,17.4,35.4,27.8,52
		c14.6,23.3,21.4,49.6,32.2,74.4c6.5,14.8,15.5,28.6,22.7,43.1c3,6.1,10,12.2,3.3,20.2c-3.4,4.1-7.1,3.8-8.5-1.2
		c-6.4-22.2-19.3-41-30.9-60.6c-17.2-29.3-34.9-58.4-51.8-87.9c-5.1-8.9-7.5-19.3-12-28.6c-5.1-10.5-11.4-20.4-16.6-30.8
		C759.6,173.7,758.7,168.5,756.5,161.7z M658.3,208.7c-22-41.5-43.2-84.3-77.3-119c10.8,60.6,23.5,120.7,27.5,182.2c0.7,0,1.3,0,2,0
		C626.4,250.8,642.4,229.7,658.3,208.7z M817.8,142.2c-3.7-11.4-7-21.8-10.5-32.1c-2.4-6.9-5-13.7-7.7-20.5
		c-0.9-2.4-2.3-4.6-3.4-6.9c-1.9,2-4.4,3.6-5.6,6c-3.9,7.8-7.1,15.9-11,23.6c-8.5,16.9-8.6,16.7,9.1,21.3
		C798.1,136,807.3,139.1,817.8,142.2z"/>
	<path d="M101.9,506c-0.4-2.8-1.9-5.9-1.1-8.3c4.2-12.5,9-24.9,13.6-37.3c1.4-3.7,2.8-7.5,4.6-11c4-7.8,3.1-15-0.5-22.9
		c-4.2-9.3-6.7-19.4-10.1-29.2c-0.9-2.8-1.6-5.8-3.3-8.1c-6.7-9.4-9.4-20-11.7-31.2c-3.3-15.5-8.4-30.7-12.9-45.9
		c-1.2-3.9-3.1-7.5-4.7-11.3c-28.3,30.5-47.8,51.8-52.9,58.5c-0.3,0.4-1.7,2.3-4.2,3.4c-6.1,2.8-16.5,0.2-18.3-6.3
		c-1-3.6,0.8-7.1,2-8.8c16.5-24.4,33.1-48.9,49.6-73.3c2-2,6.6-7.2,8-15.4c0.8-4.9,0.1-9-0.5-11.5c-11.8-45.7-23.7-91.5-35.5-137.2
		c-2-3.6-4.2-4.9-5.8-5.4c-3.9-1.2-6.5,1.3-10.5-0.5c-0.7-0.3-2.8-1.4-4-3.9C3.3,100,2,96.9,3.8,93.8c1.8-3.1,5.4-3.5,5.7-3.5
		c5.3-0.2,7.5-1.7,8.4-3.3c1.8-3-0.8-6.3-2.9-15.4c-1.6-6.9-3-12.6-0.2-15.1c2-1.8,5.7-1.5,8-0.2c0.9,0.5,2.4,1.6,4.3,7
		c4,11.1,4.9,18.4,4.9,18.4c0.1,1,0.3,3,1.8,4.1c1.5,1,3.5,0.6,4.7,0.2c12.7-2.2,127.7-22.6,137.9-23.6c4.5-0.5,5.6,1,5.9,1.3
		c1,1.3,0.7,3.5-0.8,6.1c-11.9,21-24.1,41.7-35.9,62.7c-5.6,10-10.6,20.5-15.8,30.7c-1,1.9-2,3.7-3,5.6
		c-8.2,15.9-16.3,31.9-24.7,47.8c-5,9.6-10.8,18.8-15.6,28.5c-3.9,7.8-6.8,16.1-10.2,24.2c0.7,0.5,1.4,1,2.1,1.5
		c1.6-0.5,3.5-0.5,4.6-1.5c9.7-8.4,19.1-17.4,29.1-25.5c15.3-12.4,30.4-25.4,46.8-36.2c14.3-9.3,30.2-16.1,45.7-23.5
		c2.8-1.4,8.7-1.4,10.1,0.4c3,3.8,6.3,9.6,5.5,13.8c-3.3,17.7-7.4,35.2-12.5,52.5c-3.7,12.4-9.7,24.1-14.3,36.3
		c-6.2,16.6-11.6,33.5-18.2,49.9c-5.7,14.2-13,27.6-18.6,41.8c-5.3,13.7-9.4,27.8-13.8,41.8c-3.3,10.6-6,21.4-9.6,31.8
		c-3.4,10-7,20.1-11.9,29.4c-4.5,8.4-11,15.8-16.7,23.7C103.9,505.8,102.9,505.9,101.9,506z M209.7,208.6c-1.6-8-3.8-9.7-10.2-5.7
		c-5.1,3.1-9,8.1-13.9,11.5c-15.7,10.9-32.1,20.8-47.3,32.4c-17.5,13.2-34,27.6-50.8,41.8c-1.3,1.1-1.9,4.2-1.4,6
		c3.5,12.2,7.4,24.3,11.1,36.4c2.5,8.1,4.6,16.2,7.2,24.2c1.9,5.9,2.6,13,6.5,17.2c10.2,10.9,9.6,25.2,14.3,37.8
		c0.7,2,2,3.9,3.1,5.8c2.2-2,5-3.5,6.5-6c1.7-2.8,2-6.4,3.2-9.5c11.1-28.9,22.2-57.8,33.4-86.6c3.5-8.9,7.5-17.7,10.9-26.6
		c4.6-12.1,8.9-24.3,13.2-36.6C200.2,236.7,205,222.6,209.7,208.6z M36.6,104.3c3.5,12,7.3,23.5,10.1,35.3c3.1,13.4,5,27.1,7.9,40.6
		c3.7,17.1,7.8,34,11.9,51c0.7,2.9,1.8,5.7,2.7,8.6c2.5-2.4,5.7-4.4,7.3-7.3c10.4-19.3,19.9-39,30.6-58.2
		c16.1-28.9,32-57.8,39.4-90.2C110.9,90.7,74.3,97.4,36.6,104.3z"/>
	<path d="M560.9,163c-2.2,10.1-3.6,18.9-6.3,27.4c-2.4,7.7-5.8,15.1-9.4,22.3c-2.4,4.6-5.9,6.3-11.2,2.3c-3-2.2-7.9-3.7-11.5-3.1
		c-23.9,4.6-47.8,9.9-71.6,14.9c-7.8,1.6-12.3-0.9-12.9-6.8c-0.9-8.5,0.7-8.7,9.2-8.3c8.9,0.4,18.1-1.1,26.9-2.8
		c18.2-3.4,36.4-7.3,54.5-11.1c11.6-2.5,15.9-9.4,14.4-23c-9.2,1.2-18.3,2.4-27.5,3.6c-15.6,2.1-31.1,4.1-46.7,6.2
		c-19.8,2.7-39.7,5.1-59.3,8.7c-2.6,0.5-5.2,7.3-5.6,11.5c-2.6,24.8-4.3,49.7-6.8,74.5c-2.3,21.8-4.5,43.6-8.3,65.2
		c-4.3,24.7-10.3,49.2-15.5,73.7c-3.4,15.8-6.8,31.7-9.8,47.6c-0.6,3.3,0.6,7,1.1,11.4c6.5,5.5,14.4,2.1,22.1,0.6
		c9.9-1.9,19.8-3.7,29.6-6.2c9.9-2.5,19.9-5.2,29.5-8.8c21.6-8.1,44.5-7.4,66.9-10.2c17.6-2.2,35.4-2.1,55.2-3.2
		c-6.3-16.2-11.5-30.9-17.8-45.2c-6.2-13.9-13.8-27.2-20.4-41c-2.3-4.7-3.5-9.9-5.2-14.7c-14-0.6-21.8,12-34.7,15
		c-1.8-6.3-3-12,2.7-17.5c7.5-7.2,14.4-15,20.4-21.3c-2.1-7.5-4-14.4-5.9-20.8c9.1-1.9,16.5-4.1,24-4.7c3.2-0.3,6.7,2.8,10.7,4.7
		c2.4-1,6.3-2.4,10-4.1c1.9-0.9,4.5-2.2,4.9-3.8c1.9-8.5,7.3-6.6,12.7-4.9c1,10.2-11.6,30.9-20.8,33.3c5.8,14.3,11.7,28.5,17.2,42.8
		c1.8,4.7,1.8,10,3.5,14.7c6.9,18.6,14.2,37,21.1,55.6c1.4,3.7,2.2,7.7,2.3,11.7c0.4,12.4-0.8,13.8-12.6,15.7
		c-1.9,0.3-4.8-0.2-5.8-1.5c-3.9-5.2-9.1-5.2-14.6-4.7c-12,1-24,2.4-36,3.1c-14.3,0.9-28.7,1-43,2.1c-5.7,0.4-11.4,2.4-17,4
		c-15.3,4.3-30.5,8.6-45.7,13.1c-19.1,5.6-38.6,5.8-58.2,5.5c-5.9-0.1-8.6-2.9-8.1-8.5c0.5-5.3,1.3-10.6,2.3-15.8
		c6.8-33.7,13.9-67.2,20.3-100.9c4.4-23,8.1-46.1,11.3-69.3c1.9-13.8,2.2-27.8,3.5-41.7c1.5-15.4,3.3-30.8,5-46.3
		c0.4-4,1.5-8,1.3-11.9c-0.4-6.7,3.8-9.5,9.1-10.3c18-2.5,36-4.8,54-6.6c19.5-2,39.1-3,58.5-5.1c8.9-1,17.6-3.8,26.5-5.3
		C548.8,163.6,554.2,163.5,560.9,163z"/>
	<path d="M930.9,366.5c0.3-2.5,0.8-5.1,0.7-7.6c-0.4-11-1.2-22.1-1.5-33.1c-0.3-10.1,0.4-20.2-0.2-30.3c-1.3-22.5-3.2-44.9-4.7-67.4
		c-0.8-11.7-0.9-23.4-1.8-35.1c-1.3-17.1-3.3-34.1-4.6-51.2c-0.6-7.1,0-14.3-0.2-21.4c-0.1-2.5-0.8-4.9-1.5-8.6
		c-8.7,4.2-10.5,19.3-22.6,13.1c-5.1-2.6-14.5-1.8-13-11.4c4.3-6.4,8.3-12.8,12.8-18.7c3.2-4.1,7.2-7.6,10.6-11.6
		c20.2-22.9,40.1-46.2,60.6-68.8c5.1-5.6,11.9-9.7,18.6-13.5c4.4-2.4,8.6-0.9,11,4.5c6.6,14.8,6.3,14.3-4.7,26.5
		c-16.4,18.2-32,37.2-47.9,55.9c-3.7,4.4-7.4,9-10.5,13.8c-1.8,2.8-3.7,6.3-3.6,9.4c0.4,7.9,2.2,15.8,3,23.7
		c0.9,9.3,1.3,18.6,2,27.8c0.3,3.7,1,7.3,1.3,11c1.1,11.7,2.6,23.5,3.2,35.3c1.4,29.7,2.6,59.4,3.2,89.1c0.3,13-1.1,26-1.4,39
		c-0.1,5.6,1.4,11.2,1.4,16.8c-0.1,6.9-2.2,14.1-1.2,20.8c1.2,7.6,3.7,15.5,7.6,22.1c7.8,12.9,17,24.9,25.5,37.4
		c6.3,9.2,12.8,18.2,18.5,27.7c2.7,4.4,3.2,9.3-2.3,13.2c-3,2.2-5.3,5.4-9,9.5c-6.9-9.1-13.6-17.1-19.4-25.9
		c-7.4-11.3-13.5-23.4-20.9-34.6c-7-10.6-15.1-20.6-22.6-30.9c-1.1-1.5-2.6-3-3-4.7c-3.7-18.3-15.1-32.7-24.6-48
		c-1.9-3-1.3-8.1-0.6-11.9c0.9-4.5,2.9-8.9,5-13.1c0.8-1.6,3.1-3.5,4.5-3.3c2.2,0.3,5.1,1.7,6,3.5c7,14.9,13.6,30,20.3,45
		c0.9,2.1,2.2,4.1,3.3,6.1C929.3,366.7,930.1,366.6,930.9,366.5z"/>
	<path d="M369.4,280.2c-1.5,12.9-7.8,15.4-18,7.8c-4.5-3.3-8.9-6.8-13.5-9.9c-4.2-2.9-8-3.2-9.9,2.8c-4.5,13.8-9.1,27.7-13.4,41.5
		c-6.4,20.2-12.8,40.4-18.8,60.7c-4.6,15.7-8.2,31.8-12.9,47.5c-0.8,2.7-4.7,4.5-7.1,6.8c-1.3-2.9-4.1-6-3.7-8.6
		c1.1-7.6,3.2-15,5.5-22.4c10-32.1,19.9-64.2,30.2-96.2c4.3-13.3,9.4-26.4,14.2-39.9c-14.5-11.3-29.1-22.9-44.9-35.3
		c-35,63.2-69.9,127.1-97.9,194.3c-10.1-4.1-10.4-4.6-8.1-12.2c1-3.3,2.7-6.4,4.1-9.5c7.2-16.2,13.9-32.5,21.7-48.4
		c5.6-11.4,12.7-22,19-33.1c3.5-6.2,6.8-12.4,10.1-18.7c8.5-16,17.1-32,25.6-47.9c5-9.3,10.1-18.6,14.5-28.1c0.9-1.9-0.5-5.8-2-7.7
		c-5.9-7.1-12.6-13.6-18.5-20.8c-1.5-1.7-1.3-4.9-1.8-7.4c18-5.7,20.5,13.3,32,18.7c4.5-7.8,9.1-15.7,13.6-23.7
		c9.5-16.8,18.5-33.9,28.5-50.4c8.2-13.7,17.9-26.4,26.2-40c9.8-16.1,18.7-32.7,28.1-49c1.7-2.9,3.5-6.4,6.1-7.8
		c2.6-1.4,8-2,9.3-0.4c2.2,2.6,3.5,7.4,2.9,10.9c-2.7,16-5.7,31.9-9.6,47.6c-6,24.2-12.5,48.2-19.5,72.1
		c-6,20.8-12.9,41.4-19.5,62.1c-1.9,6-4.8,11.8-6.3,18c-0.6,2.4,0.7,6.4,2.5,7.9c7.3,5.8,15,11,22.8,16.1
		C363.2,278.8,366.3,279.1,369.4,280.2z M373.8,82.2c-0.7-0.1-1.4-0.3-2.2-0.4c-4.3,5.1-9.4,9.7-12.9,15.3
		c-16.9,27.3-33.7,54.8-50.1,82.4c-7.7,12.9-14,26.6-21.8,39.3c-2.9,4.7-1.5,6.8,1.7,9.3c4.4,3.5,8.7,7,13.3,10.2
		c7.7,5.4,15.6,10.5,24.3,16.3C346,197.1,363.8,140.7,373.8,82.2z"/>
</g>
</svg>
